<svg xmlns="http://www.w3.org/2000/svg" version="1.1" xmlns:xlink="http://www.w3.org/1999/xlink" xmlns:svgjs="http://svgjs.dev/svgjs" width="2000" height="1286" viewBox="0 0 2000 1286"><g transform="matrix(1,0,0,1,-1.2153479920600603,0.5206477732792791)"><svg viewBox="0 0 384 247" data-background-color="#407aff" preserveAspectRatio="xMidYMid meet" height="1286" width="2000" xmlns="http://www.w3.org/2000/svg" xmlns:xlink="http://www.w3.org/1999/xlink"><g id="tight-bounds" transform="matrix(1,0,0,1,0.23334681447553862,-0.09999999999999432)"><svg viewBox="0 0 383.5333063710489 247.2" height="247.2" width="383.5333063710489"><g><svg viewBox="0 0 395.52 254.9258235878217" height="247.2" width="383.5333063710489"><g transform="matrix(1,0,0,1,0,188.91804728955273)"><svg viewBox="0 0 395.52 66.00777629826898" height="66.00777629826898" width="395.52"><g id="textblocktransform"><svg viewBox="0 0 395.52 66.00777629826898" height="66.00777629826898" width="395.52" id="textblock"><g><svg viewBox="0 0 395.52 66.00777629826898" height="66.00777629826898" width="395.52"><g transform="matrix(1,0,0,1,0,0)"><svg width="395.52" viewBox="1.5 -37 225.28 37.6" height="66.00777629826898" data-palette-color="#ffffff"><path d="M13.2 0.6L13.2 0.6Q9.55 0.6 6.55-0.38 3.55-1.35 1.5-2.95L1.5-2.95 3.9-6.95Q5.7-5.45 7.95-4.5 10.2-3.55 13.2-3.55L13.2-3.55Q16.8-3.55 18.9-5.05 21-6.55 21-9.1L21-9.1Q21-10.55 20.4-11.68 19.8-12.8 18.07-13.88 16.35-14.95 13-16.2L13-16.2Q9.4-17.6 7.25-19.03 5.1-20.45 4.17-22.28 3.25-24.1 3.25-26.6L3.25-26.6Q3.25-29.1 4.63-31.13 6-33.15 8.68-34.38 11.35-35.6 15.15-35.6L15.15-35.6Q18.25-35.6 20.73-34.98 23.2-34.35 25.55-33.2L25.55-33.2 23.8-29.15Q22.1-30.15 19.83-30.83 17.55-31.5 15.05-31.5L15.05-31.5Q11.75-31.5 9.85-30.2 7.95-28.9 7.95-26.85L7.95-26.85Q7.95-25.55 8.5-24.55 9.05-23.55 10.68-22.6 12.3-21.65 15.55-20.45L15.55-20.45Q19.45-19 21.73-17.4 24-15.8 24.95-13.93 25.9-12.05 25.9-9.65L25.9-9.65Q25.9-6.4 24.28-4.1 22.65-1.8 19.78-0.6 16.9 0.6 13.2 0.6ZM53.45-2.5L50.35 0.5 36.9-13.35 36.9 0 32.4 0 32.4-37 36.9-37 36.9-15.85 48.65-26.5 51.25-23.65 41.2-14.75 53.45-2.5ZM62.45 0L57.95 0 57.95-26 62.45-26 62.45 0ZM60.2-30.45L60.2-30.45Q58.9-30.45 57.97-31.4 57.05-32.35 57.05-33.6L57.05-33.6Q57.05-35.05 57.9-35.9 58.75-36.75 60.2-36.75L60.2-36.75Q61.5-36.75 62.42-35.83 63.35-34.9 63.35-33.6L63.35-33.6Q63.35-32.2 62.5-31.33 61.65-30.45 60.2-30.45ZM78.34 0.6L78.34 0.6Q76.04 0.6 74.19-0.28 72.34-1.15 71.27-3.1 70.19-5.05 70.19-8.15L70.19-8.15 70.19-37 74.69-37 74.69-8.6Q74.69-5.9 75.82-4.6 76.94-3.3 78.94-3.3L78.94-3.3Q79.89-3.3 80.82-3.53 81.74-3.75 82.39-4.05L82.39-4.05 83.49-0.4Q82.59 0 81.27 0.3 79.94 0.6 78.34 0.6ZM95.14 0.6L95.14 0.6Q92.84 0.6 90.99-0.28 89.14-1.15 88.07-3.1 86.99-5.05 86.99-8.15L86.99-8.15 86.99-37 91.49-37 91.49-8.6Q91.49-5.9 92.62-4.6 93.74-3.3 95.74-3.3L95.74-3.3Q96.69-3.3 97.62-3.53 98.54-3.75 99.19-4.05L99.19-4.05 100.29-0.4Q99.39 0 98.07 0.3 96.74 0.6 95.14 0.6ZM113.74 0.6L113.74 0.6Q110.09 0.6 107.09-0.38 104.09-1.35 102.04-2.95L102.04-2.95 104.44-6.95Q106.24-5.45 108.49-4.5 110.74-3.55 113.74-3.55L113.74-3.55Q117.34-3.55 119.44-5.05 121.54-6.55 121.54-9.1L121.54-9.1Q121.54-10.55 120.94-11.68 120.34-12.8 118.61-13.88 116.89-14.95 113.54-16.2L113.54-16.2Q109.94-17.6 107.79-19.03 105.64-20.45 104.71-22.28 103.79-24.1 103.79-26.6L103.79-26.6Q103.79-29.1 105.16-31.13 106.54-33.15 109.21-34.38 111.89-35.6 115.69-35.6L115.69-35.6Q118.79-35.6 121.26-34.98 123.74-34.35 126.09-33.2L126.09-33.2 124.34-29.15Q122.64-30.15 120.36-30.83 118.09-31.5 115.59-31.5L115.59-31.5Q112.29-31.5 110.39-30.2 108.49-28.9 108.49-26.85L108.49-26.85Q108.49-25.55 109.04-24.55 109.59-23.55 111.21-22.6 112.84-21.65 116.09-20.45L116.09-20.45Q119.99-19 122.26-17.4 124.54-15.8 125.49-13.93 126.44-12.05 126.44-9.65L126.44-9.65Q126.44-6.4 124.81-4.1 123.19-1.8 120.31-0.6 117.44 0.6 113.74 0.6ZM142.03 0.6L142.03 0.6Q138.28 0.6 136.11-1.88 133.94-4.35 133.94-8.95L133.94-8.95 133.94-21.15 129.44-21.15 129.44-25.05 134.03-25.05 134.99-33.25 138.44-33.25 138.44-25.05 145.63-25.05 145.63-21.15 138.44-21.15 138.44-8.6Q138.44-5.7 139.66-4.55 140.88-3.4 142.59-3.4L142.59-3.4Q143.84-3.4 144.96-3.8 146.09-4.2 147.03-4.75L147.03-4.75 148.28-1.15Q147.28-0.55 145.59 0.03 143.88 0.6 142.03 0.6ZM161.73 0.6L161.73 0.6Q158.48 0.6 155.83-1.05 153.18-2.7 151.61-5.73 150.03-8.75 150.03-12.85L150.03-12.85Q150.03-16.75 151.61-19.85 153.18-22.95 155.96-24.78 158.73-26.6 162.33-26.6L162.33-26.6Q164.58-26.6 166.41-25.83 168.23-25.05 169.58-23.9L169.58-23.9 169.58-26 173.68-26 173.68-6.3Q173.68-4.4 174.61-3.83 175.53-3.25 176.63-3.25L176.63-3.25 175.68 0.25Q170.88 0.25 169.88-3.65L169.88-3.65Q168.73-2.05 166.76-0.73 164.78 0.6 161.73 0.6ZM162.73-3.4L162.73-3.4Q164.63-3.4 166.33-4.33 168.03-5.25 169.18-6.65L169.18-6.65 169.18-20.6Q167.83-21.55 166.21-22.13 164.58-22.7 162.78-22.7L162.78-22.7Q160.38-22.7 158.56-21.48 156.73-20.25 155.68-18.07 154.63-15.9 154.63-13L154.63-13Q154.63-10.2 155.68-8.03 156.73-5.85 158.58-4.63 160.43-3.4 162.73-3.4ZM192.63 0.6L192.63 0.6Q188.93 0.6 186.16-1.13 183.38-2.85 181.88-5.93 180.38-9 180.38-13L180.38-13Q180.38-16.75 181.91-19.85 183.43-22.95 186.28-24.78 189.13-26.6 192.98-26.6L192.98-26.6Q195.18-26.6 196.85-26.2 198.53-25.8 200.08-25.05L200.08-25.05 198.73-21.25Q197.33-21.95 196.06-22.28 194.78-22.6 193.23-22.6L193.23-22.6Q189.73-22.6 187.35-20.08 184.98-17.55 184.98-13.1L184.98-13.1Q184.98-10.4 185.98-8.2 186.98-6 188.75-4.7 190.53-3.4 192.93-3.4L192.93-3.4Q194.83-3.4 196.18-3.83 197.53-4.25 199.08-5.05L199.08-5.05 200.48-1.25Q198.93-0.4 197 0.1 195.08 0.6 192.63 0.6ZM226.78-2.5L223.68 0.5 210.23-13.35 210.23 0 205.73 0 205.73-37 210.23-37 210.23-15.85 221.98-26.5 224.58-23.65 214.53-14.75 226.78-2.5Z" opacity="1" transform="matrix(1,0,0,1,0,0)" fill="#ffffff" class="wordmark-text-0" data-fill-palette-color="primary" id="text-0"></path></svg></g></svg></g></svg></g></svg></g><g transform="matrix(1,0,0,1,118.88382815261377,0)"><svg viewBox="0 0 157.75234369477243 157.75234369477243" height="157.75234369477243" width="157.75234369477243"><g><svg></svg></g><g id="icon-0"><svg viewBox="0 0 157.75234369477243 157.75234369477243" height="157.75234369477243" width="157.75234369477243"><g><path d="M0 78.876c0-43.562 35.314-78.876 78.876-78.876 43.562 0 78.876 35.314 78.876 78.876 0 43.562-35.314 78.876-78.876 78.876-43.562 0-78.876-35.314-78.876-78.876zM78.876 151.8c40.275 0 72.924-32.649 72.924-72.924 0-40.275-32.649-72.924-72.924-72.923-40.275 0-72.924 32.649-72.923 72.923 0 40.275 32.649 72.924 72.923 72.924z" data-fill-palette-color="tertiary" fill="#ffffff" stroke="transparent"></path></g><g transform="matrix(1,0,0,1,34.204187112204636,35.95340821688944)"><svg viewBox="0 0 89.34396947036316 85.84552726099355" height="85.84552726099355" width="89.34396947036316"><g><svg xmlns="http://www.w3.org/2000/svg" xmlns:xlink="http://www.w3.org/1999/xlink" version="1.1" x="0" y="0" viewBox="2.901275112338737 4.744095519297654 94.19843293762031 90.50990448070235" enable-background="new 0 0 100 100" xml:space="preserve" height="85.84552726099355" width="89.34396947036316" class="icon-cg-0" data-fill-palette-color="accent" id="cg-0"><g fill="#ffffff" data-fill-palette-color="accent"><path d="M78.898 78.802l-3.877-4.9-2.55-3.199 0.639-0.425-1.022-5.075 0.752-0.645 3.057-2.569-1.249-4.968-1.673 0.094 4.46-3.229-5.109-7.205 2.516-1.685-0.78-4.637-4.522-2.422-4.872-0.11-4.872-0.118-2.363-3.895-1.91-3.171-17.652 3.589-2.866 0.585-1.227 0.249 0.271 4.663-4.019 1.843-0.475 0.215-0.345 1.379 0 0-1.244 4.861-4.222 1.67 0.446 7.567-1.023 1.973-1.142 2.221 0.35 1.068 0.995 3.056-2.894 3.686 0.209 0.565 0.339 0.915 1.243 3.307-3.193 3.233-4.443 4.492c0.701 0.792 1.425 1.544 2.176 2.285l3.488-3.527 4.595-4.658 4.629-0.87L31 75.365l5.483 1.3 2.702-1.956 6.495-4.872 1.893-0.757 0.978-0.386 0.503-0.203-0.022-0.136-0.593-4.596 3.792-2.718 0.673-0.483-0.187-0.521-1.368-3.847 0.345-0.084 2.03-5.487 0.372-0.989-6.24-5.544 6.201-1.803 5.024-1.456 4.975 0.11 0 0 4.635 0.104 2.487 1.34 0.197 1.15-12.819 8.53 11.943-2.496 2.556 3.616-10.599 7.689 9.738-0.573 0.147 0.57-3.736 3.146 0.412 2.052 0 0 0.561 2.764-5.184 3.362-8.23 5.33-4.843 3.144-2.459-0.227-2.617-0.237 6.416-7.715-0.824-0.656-8.35 10.051-11.96 11.908c1.062 0.447 2.137 0.854 3.233 1.221l11.396-11.35 0.3-0.3 5.68 0.51 0.107-0.073 3.047 2.888 9.016 8.569h0.005c1.125-0.351 2.233-0.752 3.33-1.188l-9.627-9.146-3.04-2.888 3.526-2.284 7.851-5.087 3.46-2.232 2.538 3.199L76.614 81l5.241 4.194c0.778-0.718 1.548-1.453 2.283-2.21L78.898 78.802zM38.456 71.352l-2.662 1.934-6.189-1.47-1.938 0.361 0.022 0.017-0.068-0.011-2.493 0.47-0.413-1.108-0.661-1.746 0.48-0.605 1.25-1.571 12.622 2.753L38.456 71.352zM45.482 66.536l-3.024 1.215-0.503 0.192-7.931-1.729-2.391-0.515v-0.006l-5.257-1.142-0.351-1.079L25.45 61.72l0.283-0.536 0.904-1.752 4.075 1.057 10.281 2.679 4.318 1.125 0.04 0.43h0.028L45.482 66.536zM46.42 61.344l-5.861-1.525-1.011-0.266 0 0-7.359-1.914-4.861-1.263-0.271-4.617 3.12-1.234-0.09-0.207 5.172 2.566 5.76 2.854 0.006 0.003 3.939 1.949 3.272-0.771 0.633 1.761 0.254 0.723L46.42 61.344zM50.247 50.428l0.136 0.11-1.085 2.927-3.945 0.919-2.668-1.329-0.006 0.007-8.806-4.369-2.487-1.235 0.43-1.707 0.333-1.283 0.125-0.478 4.188-1.922c0.916 0.766 2.516 1.611 5.138 1.543 0.125 0 0.26-0.002 0.401-0.011 0.096-0.008 0.187-0.014 0.283-0.022 0.52-0.042 1.006-0.127 1.464-0.243l0.525 1.764L50.247 50.428zM52.383 39.522l-4.081 1.184c0.565-0.568 1-1.117 1.289-1.521 0.271-0.387 0.418-0.647 0.446-0.687l-0.932-0.503c0 0-0.39 0.696-1.142 1.527-0.605 0.658-1.436 1.41-2.493 2.009-0.604 0.333-1.277 0.616-2.023 0.8-0.396 0.099-0.814 0.167-1.243 0.206-0.232 0.017-0.458 0.028-0.667 0.04-2.176 0.042-3.516-0.608-4.279-1.209l0.074-0.009-0.226-3.775 3.205-0.653 5.291-1.077 5.901-1.198 2.441-0.495 0.339 0.565 2.188 3.606L52.383 39.522z" fill="#ffffff" data-fill-palette-color="accent"></path><polygon points="45.38,64.722 45.403,65.083 45.352,64.722  " fill="#ffffff" data-fill-palette-color="accent"></polygon><polygon points="27.688,72.193 27.621,72.183 27.666,72.177  " fill="#ffffff" data-fill-palette-color="accent"></polygon><path d="M97.02 48.334c0.695 11.863-3.193 22.95-10.174 31.581l-4.985-3.979-4.567-5.76 0 0-0.688-3.437 3.898-3.307-1.424-5.697 4.036-2.931-5.024-7.078 1.254-0.831-1.554-9.151-7.156-3.837-8.468-0.195-4.606-7.625-28.109 5.717 0.317 5.412-3.736 1.716-1.554 6.104-5.02 1.99 0.554 9.388-2.431 4.696 1.198 3.675-2.973 3.77 1.696 4.511-5.477 5.545C6.809 71.64 3.53 63.161 2.982 53.877 1.473 28.316 21.301 6.36 47.268 4.828 73.24 3.302 95.511 22.774 97.02 48.334z" fill="#ffffff" data-fill-palette-color="accent"></path></g></svg></g></svg></g></svg></g></svg></g><g></g></svg></g><defs></defs></svg><rect width="383.5333063710489" height="247.2" fill="none" stroke="none" visibility="hidden"></rect></g></svg></g></svg>